<svg width="30" height="30" viewBox="0 0 30 30" fill="none" xmlns="http://www.w3.org/2000/svg">
<path d="M1.4031e-07 15C1.4031e-07 17.9667 0.879735 20.8668 2.52796 23.3335C4.17618 25.8003 6.51885 27.7229 9.25975 28.8582C12.0006 29.9935 15.0166 30.2906 17.9263 29.7118C20.8361 29.133 23.5088 27.7044 25.6066 25.6066C27.7044 23.5088 29.133 20.8361 29.7118 17.9263C30.2906 15.0166 29.9935 12.0006 28.8582 9.25975C27.7229 6.51885 25.8003 4.17618 23.3335 2.52796C20.8668 0.879735 17.9667 1.4031e-07 15 1.4031e-07C13.0301 -0.000269303 11.0794 0.387533 9.25943 1.14126C7.43942 1.89498 5.78573 2.99986 4.3928 4.3928C2.99986 5.78573 1.89498 7.43942 1.14126 9.25943C0.387533 11.0794 -0.000269303 13.0301 1.4031e-07 15ZM20.8461 11.8697C21.1079 11.6097 21.4618 11.4637 21.8308 11.4637C22.1997 11.4637 22.5537 11.6097 22.8154 11.8697C22.9443 11.9983 23.0464 12.1511 23.1158 12.3194C23.1852 12.4878 23.2204 12.6682 23.2195 12.8503C23.2189 13.2208 23.0714 13.576 22.8092 13.8379L16.0092 20.6164C15.7453 20.8571 15.3988 20.9869 15.0416 20.9789C14.6845 20.9709 14.3442 20.8256 14.0913 20.5733L7.18974 13.6933C7.06044 13.564 6.95787 13.4105 6.88789 13.2416C6.81792 13.0726 6.7819 12.8916 6.7819 12.7087C6.7819 12.3394 6.92861 11.9852 7.18974 11.7241C7.45088 11.463 7.80505 11.3163 8.17436 11.3163C8.54366 11.3163 8.89784 11.463 9.15897 11.7241L15.0051 17.6308L20.8461 11.8697Z" fill="white"/>
</svg>
